<?xml version="1.0" standalone="no"?>
<!DOCTYPE svg PUBLIC "-//W3C//DTD SVG 1.1//EN" "http://www.w3.org/Graphics/SVG/1.1/DTD/svg11.dtd" >
<svg>
<metadata>
Created by FontForge 20090622 at Sun Jun  5 16:27:57 2016
 By deploy user
Copyright (c) 2011-2012, Martin Sommaruga (martin@estudiotrama.com), with Reserved Font Name 'Rambla'
</metadata>
<defs>
<font id="Rambla-Regular" horiz-adv-x="0" >
  <font-face 
    font-family="Rambla"
    font-weight="400"
    font-stretch="normal"
    units-per-em="1000"
    panose-1="2 0 5 3 0 0 0 2 0 4"
    ascent="800"
    descent="-200"
    x-height="506"
    cap-height="668"
    bbox="-73 -255 1032 929"
    underline-thickness="50"
    underline-position="-50"
    unicode-range="U+0020-U+FB02"
  />
<missing-glyph horiz-adv-x="500" 
 />
    <glyph glyph-name=".notdef" horiz-adv-x="500" 
 />
    <glyph glyph-name=".null" 
 />
    <glyph glyph-name="nonmarkingreturn" horiz-adv-x="333" 
 />
    <glyph glyph-name="space" unicode=" " horiz-adv-x="210" 
 />
    <glyph glyph-name="exclam" unicode="!" horiz-adv-x="235" 
d="M167 700l-12 -516h-76l-10 516h98zM118 117q25 0 43 -17.5t18 -42.5q0 -26 -18 -44.5t-43 -18.5t-43 18.5t-18 44.5q0 25 18 42.5t43 17.5z" />
    <glyph glyph-name="quotedbl" unicode="&#x22;" horiz-adv-x="352" 
d="M52 700h87l-14 -219h-60zM214 700h87l-14 -219h-60z" />
    <glyph glyph-name="numbersign" unicode="#" horiz-adv-x="595" 
d="M401 190l-38 -204h-78l36 204h-114l-37 -204h-79l36 204h-83v77h96l22 122h-114v77h128l36 202h80l-37 -202h115l37 202h78l-36 -202h102v-77h-115l-22 -122h133v-77h-146zM356 389h-113l-22 -122h114z" />
    <glyph glyph-name="dollar" unicode="$" horiz-adv-x="466" 
d="M436 174q0 -72 -45 -122t-121 -61l2 -109h-70l2 106q-112 7 -173 37l26 84q94 -38 165 -38q59 0 91 28t32 69q0 45 -35.5 75.5t-108.5 66.5q-32 16 -47.5 24.5t-39.5 27t-35.5 35.5t-21 44.5t-9.5 61.5q0 67 44.5 110.5t115.5 52.5l-2 108h70l-2 -107q64 -4 133 -29
l-25 -79q-72 26 -141 26q-49 0 -76 -23t-27 -63q0 -35 32 -61t97 -60q37 -19 61 -34.5t52 -41t42 -57.5t14 -71z" />
    <glyph glyph-name="uni0025" unicode="%" horiz-adv-x="725" 
d="M228 0h-92l362 701h91zM166 307q-61 0 -96 40.5t-35 149.5q0 110 36.5 152t97.5 42t96.5 -41.5t35.5 -151.5q0 -109 -36.5 -150t-98.5 -41zM167 626q-58 0 -58 -127q0 -71 15 -99t43 -28q29 0 44.5 28t15.5 99q0 127 -60 127zM556 -13q-61 0 -96 40.5t-35 149.5
q0 110 36.5 152t97.5 42t96.5 -41.5t35.5 -151.5q0 -109 -36.5 -150t-98.5 -41zM557 306q-58 0 -58 -127q0 -71 15 -99t43 -28q29 0 44.5 28t15.5 99q0 127 -60 127z" />
    <glyph glyph-name="ampersand" unicode="&#x26;" horiz-adv-x="673" 
d="M409 133l-169 197q-53 -23 -80 -63t-27 -83q0 -56 38 -88.5t93 -32.5q87 0 145 70zM118 554q0 59 42.5 93t108.5 34q73 0 151 -36l-25 -69q-58 29 -121 29q-71 0 -71 -54q0 -43 58 -112l205 -240q60 91 69 211h79q-10 -163 -93 -276q31 -29 73 -58.5t70 -42.5l-36 -64
q-96 42 -163 101q-82 -83 -208 -83q-90 0 -152 51t-62 142q0 127 150 213q-75 89 -75 161z" />
    <glyph glyph-name="quotesingle" unicode="'" horiz-adv-x="193" 
d="M53 700h87l-14 -240h-60z" />
    <glyph glyph-name="parenleft" unicode="(" horiz-adv-x="291" 
d="M43 309q0 219 156 444l66 -43q-130 -206 -130 -401t130 -401l-66 -43q-156 225 -156 444z" />
    <glyph glyph-name="parenright" unicode=")" horiz-adv-x="290" 
d="M247 309q0 -220 -155 -444l-66 43q130 209 130 401t-130 401l66 43q155 -224 155 -444z" />
    <glyph glyph-name="asterisk" unicode="*" horiz-adv-x="391" 
d="M247 539l102 -45l-41 -66l-83 66l9 -112h-77l9 114l-84 -68l-39 67l102 42l-102 42l38 69l85 -67l-9 112h77l-8 -112l83 67l40 -69z" />
    <glyph glyph-name="plus" unicode="+" horiz-adv-x="468" 
d="M273 85h-79v154h-152v79h152v152h79v-152h153v-79h-153v-154z" />
    <glyph glyph-name="comma" unicode="," horiz-adv-x="220" 
d="M163 59q0 -105 -89 -187h-83q82 95 82 172q0 33 -17 72h95q12 -26 12 -57z" />
    <glyph glyph-name="hyphen" unicode="-" horiz-adv-x="509" 
d="M446 318v-79h-383v79h383z" />
    <glyph glyph-name="period" unicode="." horiz-adv-x="224" 
d="M112 117q25 0 43 -17.5t18 -42.5q0 -26 -18 -44.5t-43 -18.5t-43 18.5t-18 44.5q0 25 18 42.5t43 17.5z" />
    <glyph glyph-name="slash" unicode="/" horiz-adv-x="428" 
d="M410 684l-317 -748l-75 26l319 748z" />
    <glyph glyph-name="zero" unicode="0" horiz-adv-x="529" 
d="M262 -13q-68 0 -112.5 29t-71 107t-26.5 209t28 210t73.5 109t113.5 30q104 0 157.5 -77t53.5 -268q0 -192 -55.5 -270.5t-160.5 -78.5zM265 596q-61 0 -90 -58t-29 -203q0 -148 28.5 -205.5t90.5 -57.5t90.5 57.5t28.5 205.5q0 145 -29 203t-90 58z" />
    <glyph glyph-name="one" unicode="1" horiz-adv-x="353" 
d="M278 0h-93v585l-144 -67l-27 67l185 83h79v-668z" />
    <glyph glyph-name="two" unicode="2" horiz-adv-x="474" 
d="M28 0v81q107 115 211 241q52 63 69.5 94t17.5 74q0 52 -30 79t-84 27q-62 0 -125 -25l-22 72q82 38 161 38q89 0 138.5 -49t49.5 -131q0 -92 -85 -197q-121 -151 -186 -223h295l-7 -81h-403z" />
    <glyph glyph-name="three" unicode="3" horiz-adv-x="467" 
d="M181 325h-48v68h47q59 7 91.5 40t32.5 79q0 43 -29.5 64t-78.5 21q-62 0 -125 -25l-22 72q85 37 158 37q90 0 138.5 -44.5t48.5 -119.5q0 -46 -21.5 -86.5t-61.5 -62.5q110 -41 110 -166q0 -95 -58.5 -155t-156.5 -60q-93 0 -178 52l33 75q84 -42 143 -42q58 0 92 36.5
t34 91.5q0 57 -39 91t-110 34z" />
    <glyph glyph-name="four" unicode="4" horiz-adv-x="542" 
d="M515 190h-113v-190h-89v190h-288v58l275 412h102v-404h113v-66zM313 256v274l-184 -274h184z" />
    <glyph glyph-name="five" unicode="5" horiz-adv-x="471" 
d="M217 72q59 0 89.5 40.5t30.5 107.5q0 61 -25.5 99.5t-76.5 38.5q-64 0 -107 -47l-58 30v327h330v-81h-246v-173q40 26 99 26q74 0 125 -57.5t51 -158.5q0 -103 -52 -170t-151 -67q-103 0 -189 53l30 73q30 -16 75 -28.5t75 -12.5z" />
    <glyph glyph-name="six" unicode="6" horiz-adv-x="493" 
d="M250 -13q-201 0 -201 298q0 188 74.5 292t192.5 104q57 0 104 -21l-21 -74q-38 10 -74 10q-68 0 -111.5 -51.5t-60.5 -145.5q53 49 132 49q76 0 122 -54t46 -164q0 -103 -52.5 -173t-150.5 -70zM275 365q-79 0 -133 -54q0 -94 15 -148.5t37.5 -72.5t58.5 -18
q52 0 80 42.5t28 115.5q0 135 -86 135z" />
    <glyph glyph-name="seven" unicode="7" horiz-adv-x="424" 
d="M407 615l-113 -269q-82 -182 -105 -346h-98q20 159 97 332l112 255h-276v81h383v-53z" />
    <glyph glyph-name="eight" unicode="8" horiz-adv-x="506" 
d="M257 -13q-103 0 -157.5 51t-54.5 139q0 56 31.5 103.5t83.5 75.5q-84 55 -84 157q0 80 51 123.5t130 43.5q80 0 128.5 -41.5t48.5 -114.5q0 -52 -26 -96t-74 -71q62 -28 94 -69.5t32 -107.5q0 -80 -52.5 -136.5t-150.5 -56.5zM234 317h1q-6 2 -10 4q-1 0 -2 1
q-85 -50 -85 -145q0 -50 32 -77.5t83 -27.5q54 0 85 30.5t31 79.5q0 52 -35 81t-100 54zM258 597q-39 0 -67.5 -18.5t-28.5 -57.5q0 -44 28 -80.5t71 -55.5q40 22 63.5 61.5t23.5 71.5q0 40 -25 59.5t-65 19.5z" />
    <glyph glyph-name="nine" unicode="9" horiz-adv-x="494" 
d="M171 -13q-50 0 -102 21l23 80q40 -16 75 -16q139 0 177 191q-62 -51 -135 -51q-76 0 -122 54t-46 164q0 108 53 179.5t149 71.5q202 0 202 -307q0 -182 -76 -284.5t-198 -102.5zM242 596q-53 0 -81 -44t-28 -122q0 -140 87 -140q67 0 131 57q1 11 1 32q0 121 -28 169
t-82 48z" />
    <glyph glyph-name="colon" unicode=":" horiz-adv-x="249" 
d="M124 117q25 0 43 -17.5t18 -42.5q0 -26 -18 -44.5t-43 -18.5t-43 18.5t-18 44.5q0 25 18 42.5t43 17.5zM125 417q25 0 43 -17.5t18 -42.5q0 -26 -18 -44.5t-43 -18.5t-43 18.5t-18 44.5q0 25 18 42.5t43 17.5z" />
    <glyph glyph-name="semicolon" unicode=";" horiz-adv-x="252" 
d="M126 416q25 0 43 -17.5t18 -42.5q0 -26 -18 -44.5t-43 -18.5t-43 18.5t-18 44.5q0 25 18 42.5t43 17.5zM181 59q0 -105 -89 -187h-83q82 95 82 172q0 33 -17 72h95q12 -26 12 -57z" />
    <glyph glyph-name="less" unicode="&#x3c;" horiz-adv-x="437" 
d="M37 275v70l341 171v-85l-240 -120l240 -122v-84z" />
    <glyph glyph-name="equal" unicode="=" horiz-adv-x="464" 
d="M401 432v-79h-338v79h338zM401 240v-80h-338v80h338z" />
    <glyph glyph-name="greater" unicode="&#x3e;" horiz-adv-x="437" 
d="M400 345v-70l-341 -170v84l240 122l-240 120v85z" />
    <glyph glyph-name="question" unicode="?" horiz-adv-x="339" 
d="M223 492q7 53 -41 83.5t-136 38.5l18 77q114 -5 185 -58t62 -139q-3 -36 -20 -64.5t-39.5 -48.5l-45 -40t-39.5 -49.5t-20 -66.5l-2 -59h-77q-3 56 -2 72q3 38 19.5 70.5t38 54.5l43 42t37.5 42t19 45zM112 110q25 0 43 -17.5t18 -42.5q0 -26 -18 -44.5t-43 -18.5
t-43 18.5t-18 44.5q0 25 18 42.5t43 17.5z" />
    <glyph glyph-name="at" unicode="@" horiz-adv-x="761" 
d="M555 125q-74 0 -97 60q-17 -28 -46 -44.5t-63 -16.5q-63 0 -103 41t-40 114q0 102 58.5 166t146.5 64q57 0 129 -31l-18 -203q-1 -13 -1 -33q0 -52 42 -52q79 0 79 185q0 110 -55.5 172.5t-175.5 62.5q-123 0 -201.5 -85.5t-78.5 -226.5q0 -133 70.5 -203.5t176.5 -70.5
q102 0 214 54l28 -63q-142 -65 -250 -65q-138 0 -231.5 89t-93.5 254q0 170 103.5 278.5t265.5 108.5q153 0 231.5 -82t78.5 -224q0 -249 -169 -249zM413 447q-53 0 -88 -45.5t-35 -114.5q0 -99 69 -99q33 0 54.5 27.5t25.5 70.5l13 155q-18 6 -39 6z" />
    <glyph glyph-name="A" unicode="A" horiz-adv-x="561" 
d="M398 172h-235l-57 -172h-98l219 668h107l219 -668h-97zM376 247l-96 330l-95 -330h191z" />
    <glyph glyph-name="B" unicode="B" horiz-adv-x="547" 
d="M462 502q0 -96 -77 -137q64 -24 90.5 -64.5t26.5 -105.5q0 -91 -55 -143t-165 -52h-203v668h123q59 0 86 -1t60 -8.5t55 -23.5q59 -43 59 -133zM175 596v-200h98q44 3 68 30.5t24 75.5q0 27 -7.5 45t-18 28t-32 14.5t-38 5.5t-47.5 1h-47zM263 81q142 0 142 118
q0 60 -40 91q-32 32 -114 32h-76v-241h88z" />
    <glyph glyph-name="C" unicode="C" horiz-adv-x="521" 
d="M469 81l13 -75q-79 -19 -142 -19q-288 0 -288 348q0 180 73.5 263t202.5 83q68 0 151 -23l-18 -75q-67 15 -118 15q-92 0 -143.5 -59t-51.5 -200q0 -270 211 -270q51 0 110 12z" />
    <glyph glyph-name="D" unicode="D" horiz-adv-x="610" 
d="M175 587v-506h83q118 0 160 61t42 192t-42 192t-160 61h-83zM251 0h-1h-171v668h172q128 0 178 -27q128 -65 128 -308q0 -242 -128 -307q-49 -26 -178 -26z" />
    <glyph glyph-name="E" unicode="E" horiz-adv-x="511" 
d="M175 81h284v-81h-380v668h371v-81h-275v-202h259v-79h-259v-225z" />
    <glyph glyph-name="F" unicode="F" horiz-adv-x="491" 
d="M451 587h-276v-203h258v-80h-258v-304h-96v668h372v-81z" />
    <glyph glyph-name="G" unicode="G" horiz-adv-x="570" 
d="M150 340q0 -138 51.5 -203t128.5 -65q49 0 96 22v161h-112v80h202v-287q-96 -61 -192 -61q-55 0 -102.5 19t-86.5 59t-61.5 109.5t-22.5 161.5q0 180 74.5 263t204.5 83q75 0 158 -23l-20 -75q-67 15 -123 15q-92 0 -143.5 -59t-51.5 -200z" />
    <glyph glyph-name="H" unicode="H" horiz-adv-x="616" 
d="M441 384v284h96v-668h-96v304h-266v-304h-96v668h96v-284h266z" />
    <glyph glyph-name="I" unicode="I" horiz-adv-x="254" 
d="M175 668v-668h-96v668h96z" />
    <glyph glyph-name="J" unicode="J" horiz-adv-x="255" 
d="M-2 -175l-39 67q74 42 98 93t24 140v543h96v-541q0 -106 -39.5 -181.5t-139.5 -120.5z" />
    <glyph glyph-name="K" unicode="K" horiz-adv-x="604" 
d="M174 668v-668h-95v668h95zM202 342l254 326h119l-265 -321l280 -347h-125z" />
    <glyph glyph-name="L" unicode="L" horiz-adv-x="445" 
d="M175 81h250v-81h-346v668h96v-587z" />
    <glyph glyph-name="M" unicode="M" horiz-adv-x="778" 
d="M207 668l182 -495l182 495h111l31 -668h-88l-16 474q-1 42 0 84l-182 -485h-76l-182 485q1 -42 0 -84l-16 -474h-88l31 668h111z" />
    <glyph glyph-name="N" unicode="N" horiz-adv-x="659" 
d="M580 0h-98l-316 541q4 -39 4 -84v-457h-91v668h98l316 -541q-4 39 -4 84v457h91v-668z" />
    <glyph glyph-name="O" unicode="O" horiz-adv-x="621" 
d="M311 681q69 0 121 -29t81 -79t43 -109.5t14 -129.5q0 -69 -14.5 -128.5t-44 -110t-81.5 -79.5t-122 -29q-69 0 -120 29t-80 79t-43 109.5t-14 129.5q0 69 14.5 129t44 110t81 79t120.5 29zM310 72q83 0 122.5 73t39.5 189q0 117 -39.5 189.5t-122.5 72.5t-122.5 -72.5
t-39.5 -189.5q0 -116 39.5 -189t122.5 -73z" />
    <glyph glyph-name="P" unicode="P" horiz-adv-x="526" 
d="M438 612q58 -51 58 -142q0 -110 -64 -160q-35 -28 -85.5 -39.5t-135.5 -11.5h-36v-259h-96v668h158q77 0 122 -12.5t79 -43.5zM356 364q43 31 43 101q0 64 -34 96q-35 35 -136 35h-54v-257h38q110 0 143 25z" />
    <glyph glyph-name="Q" unicode="Q" horiz-adv-x="621" 
d="M307 -12q-68 0 -119 29t-80 78.5t-43 109t-14 129.5q0 69 14.5 129t44 110t81 79t120.5 29t121 -29t81 -79t43 -109.5t14 -129.5q0 -104 -32.5 -188t-100.5 -125q56 -6 119 -27t104 -46l-53 -71q-12 8 -34.5 21t-100 42.5t-165.5 47.5zM310 66q83 0 122.5 74t39.5 194
q0 117 -39.5 189.5t-122.5 72.5t-122.5 -72.5t-39.5 -189.5q0 -120 39.5 -194t122.5 -74z" />
    <glyph glyph-name="R" unicode="R" horiz-adv-x="565" 
d="M438 612q58 -51 58 -142q0 -110 -64 -160q-34 -26 -76 -37l184 -241l-72 -49l-207 277q-16 -1 -50 -1h-36v-259h-96v668h158q77 0 122 -12.5t79 -43.5zM356 364q43 31 43 101q0 64 -34 96q-35 35 -136 35h-54v-257h38q110 0 143 25z" />
    <glyph glyph-name="S" unicode="S" horiz-adv-x="490" 
d="M451 177q0 -84 -58 -137t-153 -53q-51 0 -108.5 11t-92.5 28l26 85q98 -39 168 -39q60 0 93 28.5t33 70.5q0 46 -36 77t-111 68q-40 20 -60 32t-46.5 35.5t-38 55t-11.5 73.5q0 77 57 123t141 46q81 0 168 -32l-26 -80q-76 27 -143 27q-50 0 -77.5 -23.5t-27.5 -64.5
q0 -35 32 -61.5t99 -61.5q37 -20 61.5 -36t53 -41.5t43 -58t14.5 -72.5z" />
    <glyph glyph-name="T" unicode="T" horiz-adv-x="479" 
d="M192 583h-174v85h443v-85h-174v-583h-95v583z" />
    <glyph glyph-name="U" unicode="U" horiz-adv-x="609" 
d="M304 -13q-126 0 -184 77q-45 64 -45 181v423h96v-409q0 -104 26 -139q28 -47 108 -47q77 0 106 47q27 37 27 139v409h96v-423q0 -117 -45 -181q-55 -75 -185 -77z" />
    <glyph glyph-name="V" unicode="V" horiz-adv-x="546" 
d="M111 668l162 -558l162 558h104l-215 -668h-102l-215 668h104z" />
    <glyph glyph-name="W" unicode="W" horiz-adv-x="804" 
d="M349 618h106l148 -508l72 558h87l-89 -668h-119l-151 538l-152 -538h-120l-89 668h87l72 -558z" />
    <glyph glyph-name="X" unicode="X" horiz-adv-x="574" 
d="M557 0h-116l-157 268l-157 -268h-109l211 340l-200 328h108l148 -252l150 252h110l-203 -322z" />
    <glyph glyph-name="Y" unicode="Y" horiz-adv-x="521" 
d="M3 668h108l150 -315l154 315h101l-207 -393v-275h-96v275z" />
    <glyph glyph-name="Z" unicode="Z" horiz-adv-x="525" 
d="M156 81h333v-81h-441l-9 65l314 522h-299l-11 81h417l7 -69z" />
    <glyph glyph-name="bracketleft" unicode="[" horiz-adv-x="303" 
d="M72 -141v907h199v-71l-113 -6v-753q17 -1 113 -7v-70h-199z" />
    <glyph glyph-name="backslash" unicode="\" horiz-adv-x="404" 
d="M310 -114l-292 851l74 21l294 -851z" />
    <glyph glyph-name="bracketright" unicode="]" horiz-adv-x="303" 
d="M231 765v-906h-199v71l113 6v752q-17 1 -113 7v70h199z" />
    <glyph glyph-name="asciicircum" unicode="^" horiz-adv-x="492" 
d="M211 641h70l170 -344h-86l-120 246l-119 -246h-86z" />
    <glyph glyph-name="underscore" unicode="_" horiz-adv-x="552" 
d="M489 74v-74h-426v74h426z" />
    <glyph glyph-name="grave" unicode="`" horiz-adv-x="356" 
d="M254 577l-172 104l48 73l160 -122z" />
    <glyph glyph-name="a" unicode="a" horiz-adv-x="487" 
d="M321 37q-22 -21 -61.5 -35.5t-83.5 -14.5q-65 0 -103.5 38t-38.5 102q0 42 18 71t47 43t56 19.5t55 5.5q55 0 104 -5v78q0 58 -19.5 79.5t-78.5 21.5q-51 0 -127 -27l-21 63q29 18 76.5 29t82.5 11q97 0 137 -42t40 -141v-243q0 -11 1 -17t6.5 -12t16.5 -6q16 0 44 9
l15 -56q-34 -22 -82 -22q-60 0 -84 51zM118 136q0 -78 77 -78q63 0 119 36v116q-24 4 -78 4q-117 0 -118 -78z" />
    <glyph glyph-name="b" unicode="b" horiz-adv-x="516" 
d="M278 440q-62 0 -122 -42v-319q38 -16 95 -16q126 0 126 196q0 181 -99 181zM156 700v-231q19 15 58.5 31t78.5 16q76 0 127 -62.5t51 -175.5q0 -291 -221 -291q-106 0 -184 48v665h90z" />
    <glyph glyph-name="c" unicode="c" horiz-adv-x="434" 
d="M384 75l15 -66q-64 -24 -122 -24q-101 0 -167 66.5t-66 199.5q0 132 66 198.5t162 66.5q68 0 124 -29l-27 -64q-53 17 -95 17q-59 0 -98.5 -45t-39.5 -144q0 -189 155 -189q44 0 93 13z" />
    <glyph glyph-name="d" unicode="d" horiz-adv-x="519" 
d="M46 243q0 273 219 273q55 0 96 -23v207h91v-708h-71l-13 49q-63 -50 -141 -50q-89 0 -135 68t-46 184zM361 107v316q-42 18 -97 18q-125 0 -125 -197q0 -181 102 -181q73 0 120 44z" />
    <glyph glyph-name="e" unicode="e" horiz-adv-x="476" 
d="M399 90l23 -62q-72 -41 -157 -41q-112 0 -166.5 76.5t-54.5 200.5q0 107 58 179.5t159 72.5q85 0 129.5 -47.5t44.5 -125.5q0 -35 -15 -90h-294q2 -85 37 -138t105 -53q69 0 131 28zM136 320l217 -2v8q0 54 -22 85t-66 31q-34 0 -59.5 -13.5t-39 -35t-20.5 -38.5t-10 -35
z" />
    <glyph glyph-name="f" unicode="f" horiz-adv-x="356" 
d="M114 -177v612l-93 5l9 59l84 7v37q0 96 41 137.5t144 41.5q57 0 120 -18l-20 -71q-40 10 -89 10q-68 0 -86.5 -21t-18.5 -76v-40h137l-10 -71h-127v-621z" />
    <glyph glyph-name="g" unicode="g" horiz-adv-x="484" 
d="M180 157q-16 -35 -16 -58q0 -34 53 -34h92q72 0 112 -32.5t40 -89.5q0 -81 -64.5 -130t-171.5 -49q-92 0 -144 34t-52 96q0 78 92 126q-26 21 -26 55q0 48 39 98q-41 23 -63 65.5t-22 95.5q0 81 45 131.5t133 50.5q6 0 45 -3q26 -2 39 -2q75 0 155 14l11 -56
q-38 -8 -105 -17q38 -46 38 -118q0 -80 -46 -130.5t-133 -51.5q-26 0 -51 5zM230 447q-98 0 -98 -112t98 -112q97 0 97 111q0 58 -22.5 85.5t-74.5 27.5zM290 -13h-123q-56 -24 -56 -81q0 -35 34 -52.5t91 -17.5q68 0 105 26.5t37 72.5q0 27 -19 39.5t-69 12.5z" />
    <glyph glyph-name="h" unicode="h" horiz-adv-x="518" 
d="M159 707v-259q29 27 73.5 47.5t86.5 20.5q75 0 104.5 -44.5t29.5 -124.5v-347h-90v342q0 46 -12 72t-47 26q-38 0 -79.5 -19t-65.5 -48v-373h-91v699z" />
    <glyph glyph-name="i" unicode="i" horiz-adv-x="225" 
d="M158 511v-511h-91v502zM111 715q24 0 41.5 -17.5t17.5 -41.5q0 -26 -17.5 -44.5t-41.5 -18.5q-26 0 -44 18.5t-18 44.5q0 24 18 41.5t44 17.5z" />
    <glyph glyph-name="j" unicode="j" horiz-adv-x="225" 
d="M158 511v-465q0 -123 -56 -184.5t-164 -71.5l-11 72q77 12 109 56t32 138v446zM113 715q24 0 41.5 -17.5t17.5 -41.5q0 -26 -17.5 -44.5t-41.5 -18.5q-26 0 -44 18.5t-18 44.5q0 24 18 41.5t44 17.5z" />
    <glyph glyph-name="k" unicode="k" horiz-adv-x="500" 
d="M159 708v-427l190 221h112l-206 -223l233 -279h-110l-219 272v-272h-91v700z" />
    <glyph glyph-name="l" unicode="l" horiz-adv-x="266" 
d="M69 700h91v-598q0 -39 36 -39q28 0 59 10l15 -66q-41 -20 -101 -20q-100 0 -100 114v599z" />
    <glyph glyph-name="m" unicode="m" horiz-adv-x="801" 
d="M447 377q2 -12 2 -34v-343h-90v342q0 46 -12 72t-47 26q-38 0 -78 -19t-64 -48v-373h-90v506h75l10 -61q28 27 73.5 49t88.5 22q91 0 119 -74q30 28 78 51t90 23q134 0 134 -169v-347h-90v342q0 47 -12 72.5t-47 25.5t-74 -19t-66 -44z" />
    <glyph glyph-name="n" unicode="n" horiz-adv-x="519" 
d="M454 347v-347h-90v342q0 46 -12 72t-47 26q-38 0 -80.5 -19.5t-66.5 -47.5v-373h-90v506h75l10 -61q28 27 75.5 49t91.5 22q75 0 104.5 -44.5t29.5 -124.5z" />
    <glyph glyph-name="o" unicode="o" horiz-adv-x="508" 
d="M252 -13q-94 0 -150 63t-56 201q0 137 58.5 201t152.5 64t149.5 -63t55.5 -201q0 -137 -58 -201t-152 -64zM255 442q-117 0 -117 -191q0 -190 116 -190q48 0 82 45t34 145q0 110 -29.5 150.5t-85.5 40.5z" />
    <glyph glyph-name="p" unicode="p" horiz-adv-x="518" 
d="M158 396v-319q50 -14 96 -14q125 0 125 199q0 178 -101 178q-57 0 -120 -44zM292 516q89 0 135 -68t46 -185q0 -276 -220 -276q-52 0 -95 20v-221l-90 -10v731h76l7 -42q66 51 141 51z" />
    <glyph glyph-name="q" unicode="q" horiz-adv-x="516" 
d="M242 63q62 0 118 38v321q-34 10 -92 10q-128 0 -128 -186q0 -183 102 -183zM450 -221l-90 9v241q-55 -42 -132 -42q-90 0 -136 70t-46 189q0 126 55 194t167 68q103 0 182 -32v-697z" />
    <glyph glyph-name="r" unicode="r" horiz-adv-x="361" 
d="M158 361v-361h-90v506h75l10 -75q18 30 59.5 57.5t94.5 27.5q29 0 44 -5l-18 -72q-9 1 -26 1q-109 0 -149 -79z" />
    <glyph glyph-name="s" unicode="s" horiz-adv-x="411" 
d="M37 24l23 68q66 -29 128 -29q48 0 73.5 20.5t25.5 49.5q0 32 -24.5 53t-60 33.5t-70.5 26.5t-59.5 44.5t-24.5 76.5q0 68 48 108.5t128 40.5q84 0 134 -29l-21 -67q-58 20 -111 20q-45 0 -69 -18t-24 -48q0 -31 25 -51t60.5 -32t70.5 -26.5t60 -44.5t25 -75
q0 -66 -49 -112t-140 -46q-42 0 -84.5 11t-63.5 26z" />
    <glyph glyph-name="t" unicode="t" horiz-adv-x="370" 
d="M325 74l17 -67q-47 -20 -98 -20q-78 0 -103 32.5t-25 111.5v304l-99 5l9 59l92 7l9 120l81 15v-135h148l-9 -71h-140v-313q0 -21 1.5 -31.5t11 -19t28.5 -8.5q45 0 77 11z" />
    <glyph glyph-name="u" unicode="u" horiz-adv-x="515" 
d="M210 -13q-82 0 -114 44.5t-32 127.5v347h90v-345q0 -50 13 -73.5t57 -23.5q35 0 72.5 12.5t61.5 34.5v392h90v-512h-73l-10 54q-29 -24 -71 -41t-84 -17z" />
    <glyph glyph-name="v" unicode="v" horiz-adv-x="462" 
d="M350 505h93l-162 -505h-101l-161 506h97l115 -416z" />
    <glyph glyph-name="w" unicode="w" horiz-adv-x="689" 
d="M344 395l-97 -395h-92l-131 506h90l90 -405l99 400l82 5l100 -405l90 405h90l-131 -506h-92z" />
    <glyph glyph-name="x" unicode="x" horiz-adv-x="482" 
d="M450 506l-160 -239l175 -267h-103l-120 202l-121 -202h-105l180 268l-161 238h105l104 -173l106 173h100z" />
    <glyph glyph-name="y" unicode="y" horiz-adv-x="473" 
d="M-6 -204l11 64q16 -3 44 -3q55 0 89.5 31t60.5 110l-185 502l95 6l131 -411l118 411h94l-166 -496q-39 -118 -90.5 -169.5t-133.5 -51.5q-33 0 -68 7z" />
    <glyph glyph-name="z" unicode="z" horiz-adv-x="440" 
d="M137 74h261l10 -74h-368l-9 58l254 374h-226l-10 74h333l10 -62z" />
    <glyph glyph-name="braceleft" unicode="{" horiz-adv-x="351" 
d="M31 346h29q33 4 33 88l6 157q4 75 46.5 119t103.5 44h73v-74h-80q-31 -3 -46.5 -32.5t-15.5 -57.5l-2 -134q-3 -110 -38 -146q36 -29 38 -157q0 -41 1 -63q0 -44 1 -63q0 -28 15.5 -58t46.5 -31h75v-72h-68q-66 0 -107 43t-43 116q-1 13 -2 41.5t-1 35.5q0 11 -1 38
t-2 39q0 49 -6.5 72.5t-25.5 24.5h-30v70z" />
    <glyph glyph-name="bar" unicode="|" horiz-adv-x="233" 
d="M74 -42v736h85v-736h-85z" />
    <glyph glyph-name="braceright" unicode="}" horiz-adv-x="350" 
d="M319 346v-70h-31q-18 -2 -24.5 -25.5t-6.5 -71.5l-3 -77q-2 -45 -3 -77q-2 -73 -43 -116t-107 -43h-67v72h74q31 1 46.5 31t15.5 58q0 41 1 63q0 34 2 64q2 130 38 156q-36 33 -38 146q-1 20 -2 67t-1 67q0 28 -15.5 57.5t-46.5 32.5h-80v74h73q61 0 103.5 -44t46.5 -119
l3 -78.5l3 -78.5q0 -84 33 -88h29z" />
    <glyph glyph-name="asciitilde" unicode="~" horiz-adv-x="582" 
d="M409 294q30 0 69 57l56 -45q-57 -97 -133 -97q-47 0 -121 35q-66 32 -105 32q-30 0 -69 -57l-56 45q57 97 132 97q52 0 128 -36q70 -31 99 -31z" />
    <glyph glyph-name="uni007F" 
 />
    <glyph glyph-name="uni00A0" unicode="&#xa0;" horiz-adv-x="210" 
 />
    <glyph glyph-name="exclamdown" unicode="&#xa1;" horiz-adv-x="228" 
d="M152 338l12 -516h-98l10 516h76zM115 405q-25 0 -43 17.5t-18 42.5q0 26 18 44.5t43 18.5t43 -18.5t18 -44.5q0 -25 -18 -42.5t-43 -17.5z" />
    <glyph glyph-name="cent" unicode="&#xa2;" horiz-adv-x="442" 
d="M397 567l-27 -66q-58 25 -106 25q-59 0 -98.5 -45t-39.5 -144q0 -97 40 -142.5t98 -45.5q51 0 117 33l25 -62q-53 -35 -112 -45l5 -107h-70l5 106q-87 10 -143.5 76t-56.5 187q0 122 57 188t143 75l-5 109h70l-5 -109q57 -8 103 -33z" />
    <glyph glyph-name="sterling" unicode="&#xa3;" horiz-adv-x="490" 
d="M129 312h-90v72h64q-17 54 -17 111q0 89 52.5 137.5t142.5 48.5q75 0 157 -34l-27 -73q-67 30 -125 30q-52 0 -80 -27.5t-28 -75.5q0 -50 21 -117h126l9 -72h-112q10 -47 10 -83q0 -75 -43 -148h268v-81h-390v74q35 20 55 64.5t20 95.5q0 37 -13 78z" />
    <glyph glyph-name="currency" unicode="&#xa4;" horiz-adv-x="529" 
d="M94 -18l-53 41l78 99q-46 52 -46 128t51 133l-75 94l53 41l74 -95q46 21 94 21q43 0 83 -19l73 93l52 -41l-69 -89q26 -26 41.5 -64t15.5 -74q0 -77 -54 -134l73 -93l-53 -41l-72 96q-38 -21 -90 -21q-55 0 -98 24zM270 126q53 0 87.5 35.5t34.5 88.5t-34.5 89.5
t-87.5 36.5t-88 -36.5t-35 -89.5t34.5 -88.5t88.5 -35.5z" />
    <glyph glyph-name="yen" unicode="&#xa5;" horiz-adv-x="563" 
d="M71 125v64h161v59h-161v64h141l-190 356h108l150 -315l154 315h101l-188 -356h154v-64h-173v-59h173v-64h-173v-125h-96v125h-161z" />
    <glyph glyph-name="brokenbar" unicode="&#xa6;" horiz-adv-x="235" 
d="M75 410v284h85v-284h-85zM75 -45v288h85v-288h-85z" />
    <glyph glyph-name="section" unicode="&#xa7;" horiz-adv-x="367" 
d="M183 489q18 -43 72.5 -122t73.5 -120v1q32 -76 -4 -145q-23 -41 -73 -69q3 -5 9 -21v1q30 -69 -4 -143q-29 -58 -107 -86q-26 -10 -45 -13l-17 69l33 10q48 16 64.5 51.5t-2.5 75.5q-20 46 -73 123.5t-72 117.5q-30 78 4 144q21 41 73 69l-9 21q-12 36 -12 66
q0 119 123 163q21 8 45 13l17 -70l-33 -10q-72 -26 -72 -85q0 -18 9 -41zM114 257q8 -20 21.5 -43.5t24.5 -40l30 -43l28 -39.5q33 17 41.5 52t-6.5 67q-18 44 -104 165q-32 -18 -40.5 -52.5t5.5 -65.5z" />
    <glyph glyph-name="dieresis" unicode="&#xa8;" horiz-adv-x="325" 
d="M79 707q23 0 39 -15.5t16 -38.5t-16 -40t-39 -17q-22 0 -38.5 17t-16.5 40q0 22 16 38t39 16zM244 707q23 0 39 -15.5t16 -38.5t-16 -40t-39 -17q-22 0 -38.5 17t-16.5 40q0 22 16 38t39 16z" />
    <glyph glyph-name="copyright" unicode="&#xa9;" horiz-adv-x="732" 
d="M484 466l-24 -52q-38 24 -83 24q-44 0 -74 -34t-30 -106t30 -106.5t74 -34.5q43 0 90 27l22 -49q-52 -37 -113 -37q-73 0 -123 50.5t-50 149.5t50 149.5t123 50.5q60 0 108 -32zM686 302q0 -134 -93 -227t-227 -93t-227 93t-93 227t93 227t227 93t227 -93t93 -227z
M611 302q0 110 -69.5 181.5t-175.5 71.5t-176 -72.5t-70 -182.5t70 -182.5t176 -72.5t175.5 73.5t69.5 183.5z" />
    <glyph glyph-name="ordfeminine" unicode="&#xaa;" horiz-adv-x="346" 
d="M206 433h3q-31 -29 -82 -29q-37 0 -59 21.5t-22 58.5q1 45 31.5 62.5t67.5 17.5q28 0 56 -4v41q0 32 -10.5 43.5t-41.5 11.5q-26 0 -72 -16l-13 38q36 24 91 24t78 -24t23 -80v-135q0 -17 11 -17q5 0 25 6l11 -35q-18 -13 -49 -13q-37 0 -48 29zM96 489q0 -41 41 -41
q34 0 64 19v62q-9 2 -40 2q-64 0 -65 -42z" />
    <glyph glyph-name="guillemotleft" unicode="&#xab;" horiz-adv-x="533" 
d="M486 462l-148 -154l148 -153l-58 -51l-171 180v48l171 180zM276 462l-149 -154l149 -153l-58 -51l-171 180v48l171 180z" />
    <glyph glyph-name="logicalnot" unicode="&#xac;" horiz-adv-x="509" 
d="M55 432h388v-196h-79v117h-309v79z" />
    <glyph glyph-name="uni00AD" unicode="&#xad;" horiz-adv-x="429" 
d="M366 318v-79h-303v79h303z" />
    <glyph glyph-name="registered" unicode="&#xae;" horiz-adv-x="732" 
d="M686 302q0 -134 -93 -227t-227 -93t-227 93t-93 227t93 227t227 93t227 -93t93 -227zM611 302q0 110 -69.5 181.5t-175.5 71.5t-176 -72.5t-70 -182.5t70 -182.5t176 -72.5t175.5 73.5t69.5 183.5zM456 465q34 -30 34 -84q0 -62 -37 -92q-15 -13 -33 -19q3 -6 42.5 -58
t60.5 -76l-42 -31q-62 67 -119 155q-26 -2 -39 -2h-21v-147h-59v386h96q81 0 117 -32zM404 321q24 17 24 58q0 42 -24 57.5t-73 15.5h-29v-147h20q63 0 82 16z" />
    <glyph glyph-name="macron" unicode="&#xaf;" horiz-adv-x="577" 
d="M514 670v-79h-451v79h451z" />
    <glyph glyph-name="degree" unicode="&#xb0;" horiz-adv-x="328" 
d="M285 633q0 -51 -32 -87t-91 -36t-89 34.5t-30 84.5q0 51 31.5 86.5t90.5 35.5t89.5 -34t30.5 -84zM219 633q0 23 -13 40t-41 17q-29 0 -42.5 -17.5t-13.5 -43.5q0 -24 12 -41.5t41 -17.5q30 0 43.5 19t13.5 44z" />
    <glyph glyph-name="plusminus" unicode="&#xb1;" horiz-adv-x="496" 
d="M288 142h-80v153h-152v81h152v150h80v-150h152v-81h-152v-153zM440 80v-80h-384v80h384z" />
    <glyph glyph-name="twosuperior" unicode="&#xb2;" horiz-adv-x="338" 
d="M36 286v56q47 50 98 115l13.5 17l14.5 18t13 17t12 18l9 16.5t7 18t2 16.5q0 31 -16 45.5t-40 14.5q-44 0 -78 -18l-20 51q58 29 106 29q62 0 91 -31t29 -84q0 -52 -52 -122q-67 -88 -91 -115h159v-62h-257z" />
    <glyph glyph-name="threesuperior" unicode="&#xb3;" horiz-adv-x="316" 
d="M128 479h-32v55h31q31 1 47.5 19t16.5 43q0 46 -53 46q-42 0 -79 -18l-17 50q56 28 101 28q57 0 88 -28t31 -77q0 -55 -48 -84q63 -26 63 -99q0 -59 -36.5 -96t-98.5 -37q-56 0 -113 35l25 52q46 -26 88 -26q30 0 47.5 19.5t17.5 52.5q0 29 -21 47t-58 18z" />
    <glyph glyph-name="acute" unicode="&#xb4;" horiz-adv-x="356" 
d="M279 681l-172 -104l-36 55l160 122z" />
    <glyph glyph-name="mu" unicode="&#xb5;" horiz-adv-x="557" 
d="M69 -207v706l90 9v-347q0 -50 13 -73.5t57 -23.5q35 0 72.5 12.5t61.5 34.5v395h90v-416q0 -11 1 -17t6.5 -12t16.5 -6q16 0 44 9l15 -56q-34 -22 -82 -22q-65 0 -84 63q-28 -26 -70 -44t-85 -18q-33 0 -56 10v-204h-90z" />
    <glyph glyph-name="paragraph" unicode="&#xb6;" horiz-adv-x="508" 
d="M479 604h-72v-766h-74v766h-74v-766h-78v513q-66 0 -112.5 46.5t-46.5 112.5t46.5 112t112.5 46h298v-64z" />
    <glyph glyph-name="periodcentered" unicode="&#xb7;" horiz-adv-x="254" 
d="M126 333q30 0 51 -20.5t21 -48.5q0 -30 -21 -52t-51 -22q-28 0 -49 22t-21 52q0 28 21 48.5t49 20.5z" />
    <glyph glyph-name="cedilla" unicode="&#xb8;" horiz-adv-x="284" 
d="M206 -49q16 -34 16 -64q0 -79 -106 -142l-41 48q70 49 70 99q0 25 -18 59h79z" />
    <glyph glyph-name="onesuperior" unicode="&#xb9;" horiz-adv-x="243" 
d="M184 259h-74v342l-80 -41l-22 57l118 51h58v-409z" />
    <glyph glyph-name="ordmasculine" unicode="&#xba;" horiz-adv-x="332" 
d="M165 404q-53 0 -85 35.5t-32 113.5q0 77 33 113t86 36q117 0 117 -149q0 -77 -33 -113t-86 -36zM166 657q-63 0 -63 -104t63 -104q26 0 44 24.5t18 79.5q0 60 -16 82t-46 22z" />
    <glyph glyph-name="guillemotright" unicode="&#xbb;" horiz-adv-x="531" 
d="M194 308l-148 154l58 50l171 -180v-48l-171 -180l-58 51zM405 308l-149 154l58 50l171 -180v-48l-171 -180l-58 51z" />
    <glyph glyph-name="onequarter" unicode="&#xbc;" horiz-adv-x="714" 
d="M687 111h-68v-111h-65v111h-164v42l132 247h97v-234h68v-55zM554 166l1 168l-87 -168h86zM196 291h-74v342l-80 -41l-22 57l118 51h58v-409zM534 703l-317 -748l-75 26l319 748z" />
    <glyph glyph-name="onehalf" unicode="&#xbd;" horiz-adv-x="739" 
d="M448 0v56q47 50 98 115l13.5 17l14.5 18t13 17t12 18l9 16.5t7 18t2 16.5q0 31 -16 45.5t-40 14.5q-44 0 -78 -18l-20 51q58 29 106 29q62 0 91 -31t29 -84q0 -52 -52 -122q-67 -88 -91 -115h159v-62h-257zM196 291h-74v342l-80 -41l-22 57l118 51h58v-409zM527 703
l-317 -748l-75 26l319 748z" />
    <glyph glyph-name="threequarters" unicode="&#xbe;" horiz-adv-x="771" 
d="M125 477h-32v55h31q31 1 47.5 19t16.5 43q0 46 -53 46q-41 0 -79 -18l-17 50q56 28 101 28q57 0 88 -28t31 -77q0 -55 -48 -84q63 -26 63 -99q0 -59 -36.5 -96t-98.5 -37q-56 0 -113 35l25 52q45 -26 88 -26q30 0 47.5 19.5t17.5 52.5q0 29 -21 47t-58 18zM748 111h-68
v-111h-65v111h-164v42l132 247h97v-234h68v-55zM615 166l1 168l-87 -168h86zM589 692l-317 -748l-75 26l319 748z" />
    <glyph glyph-name="questiondown" unicode="&#xbf;" horiz-adv-x="334" 
d="M113 9q-7 -53 41 -83.5t136 -38.5l-18 -77q-114 5 -185 58t-62 139q3 36 20 64.5t39.5 48.5l45 40t39.5 49.5t20 66.5l2 59h77q3 -56 2 -72q-3 -38 -19.5 -70.5t-38 -54.5l-43 -42t-37.5 -42t-19 -45zM224 391q-25 0 -43 17.5t-18 42.5q0 26 18 44.5t43 18.5t43 -18.5
t18 -44.5q0 -25 -18 -42.5t-43 -17.5z" />
    <glyph glyph-name="Agrave" unicode="&#xc0;" horiz-adv-x="561" 
d="M398 172h-235l-57 -172h-98l219 668h107l219 -668h-97zM376 247l-96 330l-95 -330h191zM333 726l-172 104l48 73l160 -122z" />
    <glyph glyph-name="Aacute" unicode="&#xc1;" horiz-adv-x="561" 
d="M398 172h-235l-57 -172h-98l219 668h107l219 -668h-97zM376 247l-96 330l-95 -330h191zM408 832l-172 -104l-36 55l160 122z" />
    <glyph glyph-name="Acircumflex" unicode="&#xc2;" horiz-adv-x="561" 
d="M398 172h-235l-57 -172h-98l219 668h107l219 -668h-97zM376 247l-96 330l-95 -330h191zM280 800l-85 -86l-48 36l99 110h65l100 -110l-51 -36z" />
    <glyph glyph-name="Atilde" unicode="&#xc3;" horiz-adv-x="561" 
d="M398 172h-235l-57 -172h-98l219 668h107l219 -668h-97zM376 247l-96 330l-95 -330h191zM158 736l-44 37q19 30 45 50.5t52 20.5q22 0 68.5 -21.5t66.5 -21.5q19 0 56 42l43 -36q-20 -34 -50 -55.5t-57 -21.5q-23 0 -67 21.5t-63 21.5t-50 -37z" />
    <glyph glyph-name="Adieresis" unicode="&#xc4;" horiz-adv-x="561" 
d="M398 172h-235l-57 -172h-98l219 668h107l219 -668h-97zM376 247l-96 330l-95 -330h191zM199 839q23 0 39 -15.5t16 -38.5t-16 -40t-39 -17q-22 0 -38.5 17t-16.5 40q0 22 16 38t39 16zM364 839q23 0 39 -15.5t16 -38.5t-16 -40t-39 -17q-22 0 -38.5 17t-16.5 40
q0 22 16 38t39 16z" />
    <glyph glyph-name="Aring" unicode="&#xc5;" horiz-adv-x="561" 
d="M382 828q0 -43 -27 -73.5t-77 -30.5t-76 30t-26 73t26.5 72.5t76.5 29.5t76.5 -29t26.5 -72zM323 828q0 19 -10.5 33t-33.5 14q-22 0 -33 -14t-11 -34t10.5 -34.5t32.5 -14.5q23 0 34 15t11 35zM398 172h-235l-57 -172h-98l219 668h107l219 -668h-97zM376 247l-96 330
l-95 -330h191z" />
    <glyph glyph-name="AE" unicode="&#xc6;" horiz-adv-x="777" 
d="M296 668h424l-9 -81h-266v-202h259v-80h-259v-224h275l10 -81h-379v172h-171l-75 -172h-100zM351 594l-140 -347h140v347z" />
    <glyph glyph-name="Ccedilla" unicode="&#xc7;" horiz-adv-x="521" 
d="M469 81l13 -75q-79 -19 -142 -19q-288 0 -288 348q0 180 73.5 263t202.5 83q68 0 151 -23l-18 -75q-67 15 -118 15q-92 0 -143.5 -59t-51.5 -200q0 -270 211 -270q51 0 110 12zM369 -49q16 -34 16 -64q0 -79 -106 -142l-41 48q70 49 70 99q0 25 -18 59h79z" />
    <glyph glyph-name="Egrave" unicode="&#xc8;" horiz-adv-x="511" 
d="M175 81h284v-81h-380v668h371v-81h-275v-202h259v-79h-259v-225zM316 726l-172 104l48 73l160 -122z" />
    <glyph glyph-name="Eacute" unicode="&#xc9;" horiz-adv-x="511" 
d="M175 81h284v-81h-380v668h371v-81h-275v-202h259v-79h-259v-225zM379 832l-172 -104l-36 55l160 122z" />
    <glyph glyph-name="Ecircumflex" unicode="&#xca;" horiz-adv-x="511" 
d="M175 81h284v-81h-380v668h371v-81h-275v-202h259v-79h-259v-225zM268 800l-85 -86l-48 36l99 110h65l100 -110l-51 -36z" />
    <glyph glyph-name="Edieresis" unicode="&#xcb;" horiz-adv-x="511" 
d="M175 81h284v-81h-380v668h371v-81h-275v-202h259v-79h-259v-225zM186 839q23 0 39 -15.5t16 -38.5t-16 -40t-39 -17q-22 0 -38.5 17t-16.5 40q0 22 16 38t39 16zM351 839q23 0 39 -15.5t16 -38.5t-16 -40t-39 -17q-22 0 -38.5 17t-16.5 40q0 22 16 38t39 16z" />
    <glyph glyph-name="Igrave" unicode="&#xcc;" horiz-adv-x="254" 
d="M175 668v-668h-96v668h96zM165 726l-172 104l48 73l160 -122z" />
    <glyph glyph-name="Iacute" unicode="&#xcd;" horiz-adv-x="254" 
d="M175 668v-668h-96v668h96zM255 832l-172 -104l-36 55l160 122z" />
    <glyph glyph-name="Icircumflex" unicode="&#xce;" horiz-adv-x="254" 
d="M175 668v-668h-96v668h96zM117 800l-85 -86l-48 36l99 110h65l100 -110l-51 -36z" />
    <glyph glyph-name="Idieresis" unicode="&#xcf;" horiz-adv-x="254" 
d="M175 668v-668h-96v668h96zM35 839q23 0 39 -15.5t16 -38.5t-16 -40t-39 -17q-22 0 -38.5 17t-16.5 40q0 22 16 38t39 16zM200 839q23 0 39 -15.5t16 -38.5t-16 -40t-39 -17q-22 0 -38.5 17t-16.5 40q0 22 16 38t39 16z" />
    <glyph glyph-name="Eth" unicode="&#xd0;" horiz-adv-x="629" 
d="M15 305v79h84v284h171q123 0 177 -28q64 -36 97 -119.5t33 -187.5t-32.5 -186.5t-97.5 -119.5q-52 -27 -177 -27h-171v305h-84zM195 587v-203l157 1v-79l-157 -1v-224h83q118 0 160 61t42 192t-42 192t-160 61h-83z" />
    <glyph glyph-name="Ntilde" unicode="&#xd1;" horiz-adv-x="659" 
d="M580 0h-98l-316 541q4 -39 4 -84v-457h-91v668h98l316 -541q-4 39 -4 84v457h91v-668zM187 736l-44 37q19 30 45 50.5t52 20.5q22 0 68.5 -21.5t66.5 -21.5q19 0 56 42l43 -36q-20 -34 -50 -55.5t-57 -21.5q-23 0 -67 21.5t-63 21.5t-50 -37z" />
    <glyph glyph-name="Ograve" unicode="&#xd2;" horiz-adv-x="621" 
d="M311 681q69 0 121 -29t81 -79t43 -109.5t14 -129.5q0 -69 -14.5 -128.5t-44 -110t-81.5 -79.5t-122 -29q-69 0 -120 29t-80 79t-43 109.5t-14 129.5q0 69 14.5 129t44 110t81 79t120.5 29zM310 72q83 0 122.5 73t39.5 189q0 117 -39.5 189.5t-122.5 72.5t-122.5 -72.5
t-39.5 -189.5q0 -116 39.5 -189t122.5 -73zM371 726l-172 104l48 73l160 -122z" />
    <glyph glyph-name="Oacute" unicode="&#xd3;" horiz-adv-x="621" 
d="M311 681q69 0 121 -29t81 -79t43 -109.5t14 -129.5q0 -69 -14.5 -128.5t-44 -110t-81.5 -79.5t-122 -29q-69 0 -120 29t-80 79t-43 109.5t-14 129.5q0 69 14.5 129t44 110t81 79t120.5 29zM310 72q83 0 122.5 73t39.5 189q0 117 -39.5 189.5t-122.5 72.5t-122.5 -72.5
t-39.5 -189.5q0 -116 39.5 -189t122.5 -73zM429 832l-172 -104l-36 55l160 122z" />
    <glyph glyph-name="Ocircumflex" unicode="&#xd4;" horiz-adv-x="621" 
d="M311 681q69 0 121 -29t81 -79t43 -109.5t14 -129.5q0 -69 -14.5 -128.5t-44 -110t-81.5 -79.5t-122 -29q-69 0 -120 29t-80 79t-43 109.5t-14 129.5q0 69 14.5 129t44 110t81 79t120.5 29zM310 72q83 0 122.5 73t39.5 189q0 117 -39.5 189.5t-122.5 72.5t-122.5 -72.5
t-39.5 -189.5q0 -116 39.5 -189t122.5 -73zM315 800l-85 -86l-48 36l99 110h65l100 -110l-51 -36z" />
    <glyph glyph-name="Otilde" unicode="&#xd5;" horiz-adv-x="621" 
d="M311 681q69 0 121 -29t81 -79t43 -109.5t14 -129.5q0 -69 -14.5 -128.5t-44 -110t-81.5 -79.5t-122 -29q-69 0 -120 29t-80 79t-43 109.5t-14 129.5q0 69 14.5 129t44 110t81 79t120.5 29zM310 72q83 0 122.5 73t39.5 189q0 117 -39.5 189.5t-122.5 72.5t-122.5 -72.5
t-39.5 -189.5q0 -116 39.5 -189t122.5 -73zM195 736l-44 37q19 30 45 50.5t52 20.5q22 0 68.5 -21.5t66.5 -21.5q19 0 56 42l43 -36q-20 -34 -50 -55.5t-57 -21.5q-23 0 -67 21.5t-63 21.5t-50 -37z" />
    <glyph glyph-name="Odieresis" unicode="&#xd6;" horiz-adv-x="621" 
d="M311 681q69 0 121 -29t81 -79t43 -109.5t14 -129.5q0 -69 -14.5 -128.5t-44 -110t-81.5 -79.5t-122 -29q-69 0 -120 29t-80 79t-43 109.5t-14 129.5q0 69 14.5 129t44 110t81 79t120.5 29zM310 72q83 0 122.5 73t39.5 189q0 117 -39.5 189.5t-122.5 72.5t-122.5 -72.5
t-39.5 -189.5q0 -116 39.5 -189t122.5 -73zM219 839q23 0 39 -15.5t16 -38.5t-16 -40t-39 -17q-22 0 -38.5 17t-16.5 40q0 22 16 38t39 16zM384 839q23 0 39 -15.5t16 -38.5t-16 -40t-39 -17q-22 0 -38.5 17t-16.5 40q0 22 16 38t39 16z" />
    <glyph glyph-name="multiply" unicode="&#xd7;" horiz-adv-x="510" 
d="M463 153l-56 -56l-151 149l-151 -151l-57 56l150 150l-149 148l57 57l148 -148l149 148l59 -54l-149 -149z" />
    <glyph glyph-name="Oslash" unicode="&#xd8;" horiz-adv-x="621" 
d="M517 736l-46 -113q99 -89 99 -289q0 -69 -14.5 -128.5t-44 -110t-81.5 -79.5t-122 -29q-46 0 -91 15l-48 -118l-73 26l55 133q-100 89 -100 291q0 69 14.5 129t44 110t81 79t120.5 29q52 0 95 -17l40 97zM148 334q0 -125 43 -194l181 442q-28 14 -62 14
q-83 0 -122.5 -72.5t-39.5 -189.5zM310 72q83 0 122.5 73t39.5 189q0 124 -41 192l-180 -442q25 -12 59 -12z" />
    <glyph glyph-name="Ugrave" unicode="&#xd9;" horiz-adv-x="609" 
d="M304 -13q-126 0 -184 77q-45 64 -45 181v423h96v-409q0 -104 26 -139q28 -47 108 -47q77 0 106 47q27 37 27 139v409h96v-423q0 -117 -45 -181q-55 -75 -185 -77zM358 726l-172 104l48 73l160 -122z" />
    <glyph glyph-name="Uacute" unicode="&#xda;" horiz-adv-x="609" 
d="M304 -13q-126 0 -184 77q-45 64 -45 181v423h96v-409q0 -104 26 -139q28 -47 108 -47q77 0 106 47q27 37 27 139v409h96v-423q0 -117 -45 -181q-55 -75 -185 -77zM438 832l-172 -104l-36 55l160 122z" />
    <glyph glyph-name="Ucircumflex" unicode="&#xdb;" horiz-adv-x="609" 
d="M304 -13q-126 0 -184 77q-45 64 -45 181v423h96v-409q0 -104 26 -139q28 -47 108 -47q77 0 106 47q27 37 27 139v409h96v-423q0 -117 -45 -181q-55 -75 -185 -77zM307 800l-85 -86l-48 36l99 110h65l100 -110l-51 -36z" />
    <glyph glyph-name="Udieresis" unicode="&#xdc;" horiz-adv-x="609" 
d="M304 -13q-126 0 -184 77q-45 64 -45 181v423h96v-409q0 -104 26 -139q28 -47 108 -47q77 0 106 47q27 37 27 139v409h96v-423q0 -117 -45 -181q-55 -75 -185 -77zM223 839q23 0 39 -15.5t16 -38.5t-16 -40t-39 -17q-22 0 -38.5 17t-16.5 40q0 22 16 38t39 16zM388 839
q23 0 39 -15.5t16 -38.5t-16 -40t-39 -17q-22 0 -38.5 17t-16.5 40q0 22 16 38t39 16z" />
    <glyph glyph-name="Yacute" unicode="&#xdd;" horiz-adv-x="521" 
d="M3 668h108l150 -315l154 315h101l-207 -393v-275h-96v275zM401 832l-172 -104l-36 55l160 122z" />
    <glyph glyph-name="Thorn" unicode="&#xde;" horiz-adv-x="517" 
d="M429 540q56 -49 56 -141q0 -108 -61 -155q-35 -28 -85 -39t-137 -11h-53v-194h-70v700h70v-106h80q77 0 121.5 -12t78.5 -42zM365 281q48 34 48 113q0 67 -38 103q-39 38 -145 38h-81v-282h65q112 0 151 28z" />
    <glyph glyph-name="germandbls" unicode="&#xdf;" horiz-adv-x="580" 
d="M254 366q0 28 11.5 51t28 38.5l33.5 30t28.5 32.5t11.5 38q0 78 -88 78q-62 0 -91 -32.5t-29 -101.5v-636l-91 1v637q0 105 57 156.5t157 51.5q85 0 130 -42.5t45 -106.5q0 -35 -18 -64.5t-40 -46.5t-40 -37.5t-18 -39.5q0 -18 5 -31t18.5 -23.5t21.5 -15t28 -14.5
q32 -13 50 -22.5t41.5 -28t34.5 -44t11 -58.5q0 -69 -45 -109t-122 -40q-40 0 -89.5 13.5t-71.5 30.5l23 67q75 -37 144 -37q74 0 74 70q0 21 -14.5 38.5t-29.5 26t-44 22.5q-31 15 -46 24t-36.5 27t-30.5 41.5t-9 55.5z" />
    <glyph glyph-name="agrave" unicode="&#xe0;" horiz-adv-x="487" 
d="M321 37q-22 -21 -61.5 -35.5t-83.5 -14.5q-65 0 -103.5 38t-38.5 102q0 42 18 71t47 43t56 19.5t55 5.5q55 0 104 -5v78q0 58 -19.5 79.5t-78.5 21.5q-51 0 -127 -27l-21 63q29 18 76.5 29t82.5 11q97 0 137 -42t40 -141v-243q0 -11 1 -17t6.5 -12t16.5 -6q16 0 44 9
l15 -56q-34 -22 -82 -22q-60 0 -84 51zM118 136q0 -78 77 -78q63 0 119 36v116q-24 4 -78 4q-117 0 -118 -78zM293 577l-172 104l48 73l160 -122z" />
    <glyph glyph-name="aacute" unicode="&#xe1;" horiz-adv-x="487" 
d="M321 37q-22 -21 -61.5 -35.5t-83.5 -14.5q-65 0 -103.5 38t-38.5 102q0 42 18 71t47 43t56 19.5t55 5.5q55 0 104 -5v78q0 58 -19.5 79.5t-78.5 21.5q-51 0 -127 -27l-21 63q29 18 76.5 29t82.5 11q97 0 137 -42t40 -141v-243q0 -11 1 -17t6.5 -12t16.5 -6q16 0 44 9
l15 -56q-34 -22 -82 -22q-60 0 -84 51zM118 136q0 -78 77 -78q63 0 119 36v116q-24 4 -78 4q-117 0 -118 -78zM331 681l-172 -104l-36 55l160 122z" />
    <glyph glyph-name="acircumflex" unicode="&#xe2;" horiz-adv-x="487" 
d="M321 37q-22 -21 -61.5 -35.5t-83.5 -14.5q-65 0 -103.5 38t-38.5 102q0 42 18 71t47 43t56 19.5t55 5.5q55 0 104 -5v78q0 58 -19.5 79.5t-78.5 21.5q-51 0 -127 -27l-21 63q29 18 76.5 29t82.5 11q97 0 137 -42t40 -141v-243q0 -11 1 -17t6.5 -12t16.5 -6q16 0 44 9
l15 -56q-34 -22 -82 -22q-60 0 -84 51zM118 136q0 -78 77 -78q63 0 119 36v116q-24 4 -78 4q-117 0 -118 -78zM237 667l-85 -86l-48 36l99 110h65l100 -110l-51 -36z" />
    <glyph glyph-name="atilde" unicode="&#xe3;" horiz-adv-x="487" 
d="M104 593l-44 37q19 30 45 50.5t52 20.5q22 0 68.5 -21.5t66.5 -21.5q19 0 56 42l43 -36q-20 -34 -50 -55.5t-57 -21.5q-23 0 -67 21.5t-63 21.5t-50 -37zM321 37q-22 -21 -61.5 -35.5t-83.5 -14.5q-65 0 -103.5 38t-38.5 102q0 42 18 71t47 43t56 19.5t55 5.5
q55 0 104 -5v78q0 58 -19.5 79.5t-78.5 21.5q-51 0 -127 -27l-21 63q29 18 76.5 29t82.5 11q97 0 137 -42t40 -141v-243q0 -11 1 -17t6.5 -12t16.5 -6q16 0 44 9l15 -56q-34 -22 -82 -22q-60 0 -84 51zM118 136q0 -78 77 -78q63 0 119 36v116q-24 4 -78 4q-117 0 -118 -78z
" />
    <glyph glyph-name="adieresis" unicode="&#xe4;" horiz-adv-x="487" 
d="M148 707q23 0 39 -15.5t16 -38.5t-16 -40t-39 -17q-22 0 -38.5 17t-16.5 40q0 22 16 38t39 16zM313 707q23 0 39 -15.5t16 -38.5t-16 -40t-39 -17q-22 0 -38.5 17t-16.5 40q0 22 16 38t39 16zM321 37q-22 -21 -61.5 -35.5t-83.5 -14.5q-65 0 -103.5 38t-38.5 102
q0 42 18 71t47 43t56 19.5t55 5.5q55 0 104 -5v78q0 58 -19.5 79.5t-78.5 21.5q-51 0 -127 -27l-21 63q29 18 76.5 29t82.5 11q97 0 137 -42t40 -141v-243q0 -11 1 -17t6.5 -12t16.5 -6q16 0 44 9l15 -56q-34 -22 -82 -22q-60 0 -84 51zM118 136q0 -78 77 -78q63 0 119 36
v116q-24 4 -78 4q-117 0 -118 -78z" />
    <glyph glyph-name="aring" unicode="&#xe5;" horiz-adv-x="487" 
d="M321 38q-22 -21 -61.5 -35.5t-83.5 -14.5q-65 0 -103.5 38t-38.5 102q0 42 18 71t47 43t56 19.5t55 5.5q55 0 104 -5v78q0 58 -19.5 79.5t-78.5 21.5q-51 0 -127 -27l-21 63q29 18 76.5 29t82.5 11q97 0 137 -42t40 -141v-243q0 -11 1 -17t6.5 -12t16.5 -6q16 0 44 9
l15 -56q-34 -22 -82 -22q-60 0 -84 51zM118 137q0 -78 77 -78q63 0 119 36v116q-24 4 -78 4q-117 0 -118 -78zM330 691q0 -43 -27 -73.5t-77 -30.5t-76 30t-26 73t26.5 72.5t76.5 29.5t76.5 -29t26.5 -72zM271 691q0 19 -10.5 33t-33.5 14q-22 0 -33 -14t-11 -34t10.5 -34.5
t32.5 -14.5q23 0 34 15t11 35z" />
    <glyph glyph-name="ae" unicode="&#xe6;" horiz-adv-x="748" 
d="M312 261v78q0 58 -19.5 79.5t-78.5 21.5q-52 0 -128 -27l-21 63q29 18 76.5 29t82.5 11q63 0 99.5 -17.5t52.5 -61.5q45 79 150 79q85 0 130.5 -46.5t45.5 -124.5q0 -42 -14 -93h-294q2 -85 38 -137.5t106 -52.5q71 0 137 37l28 -63q-76 -49 -167 -49q-99 0 -159 67
q-31 -29 -86 -48t-115 -19q-65 0 -103 38t-38 102q0 42 18 71t47 43t56 19.5t55 5.5q53 0 101 -5zM237 214q-117 0 -118 -78q0 -76 77 -78q36 0 81.5 10.5t71.5 27.5q-27 50 -35 114q-24 4 -77 4zM403 319h217v8q0 54 -22.5 84.5t-66.5 30.5q-34 0 -59 -13.5t-39 -35.5
t-20 -39t-10 -35z" />
    <glyph glyph-name="ccedilla" unicode="&#xe7;" horiz-adv-x="434" 
d="M304 -49q16 -34 16 -64q0 -79 -106 -142l-41 48q70 49 70 99q0 25 -18 59h79zM384 75l15 -66q-64 -24 -122 -24q-101 0 -167 66.5t-66 199.5q0 132 66 198.5t162 66.5q68 0 124 -29l-27 -64q-53 17 -95 17q-59 0 -98.5 -45t-39.5 -144q0 -189 155 -189q44 0 93 13z" />
    <glyph glyph-name="egrave" unicode="&#xe8;" horiz-adv-x="476" 
d="M399 90l23 -62q-72 -41 -157 -41q-112 0 -166.5 76.5t-54.5 200.5q0 107 58 179.5t159 72.5q85 0 129.5 -47.5t44.5 -125.5q0 -35 -15 -90h-294q2 -85 37 -138t105 -53q69 0 131 28zM136 320l217 -2v8q0 54 -22 85t-66 31q-34 0 -59.5 -13.5t-39 -35t-20.5 -38.5t-10 -35
zM344 577l-172 104l48 73l160 -122z" />
    <glyph glyph-name="eacute" unicode="&#xe9;" horiz-adv-x="476" 
d="M399 90l23 -62q-72 -41 -157 -41q-112 0 -166.5 76.5t-54.5 200.5q0 107 58 179.5t159 72.5q85 0 129.5 -47.5t44.5 -125.5q0 -35 -15 -90h-294q2 -85 37 -138t105 -53q69 0 131 28zM136 320l217 -2v8q0 54 -22 85t-66 31q-34 0 -59.5 -13.5t-39 -35t-20.5 -38.5t-10 -35
zM356 681l-172 -104l-36 55l160 122z" />
    <glyph glyph-name="ecircumflex" unicode="&#xea;" horiz-adv-x="476" 
d="M259 667l-85 -86l-48 36l99 110h65l100 -110l-51 -36zM422 28l-23 62q-62 -28 -131 -28q-70 0 -105 53t-37 138h294q15 55 15 90q0 78 -44.5 125.5t-129.5 47.5q-101 0 -159 -72.5t-58 -179.5q0 -124 54.5 -200.5t166.5 -76.5q85 0 157 41zM353 318l-217 2q3 18 10 35
t20.5 38.5t39 35t59.5 13.5q44 0 66 -31t22 -85v-8z" />
    <glyph glyph-name="edieresis" unicode="&#xeb;" horiz-adv-x="476" 
d="M181 707q23 0 39 -15.5t16 -38.5t-16 -40t-39 -17q-22 0 -38.5 17t-16.5 40q0 22 16 38t39 16zM346 707q23 0 39 -15.5t16 -38.5t-16 -40t-39 -17q-22 0 -38.5 17t-16.5 40q0 22 16 38t39 16zM399 90l23 -62q-72 -41 -157 -41q-112 0 -166.5 76.5t-54.5 200.5
q0 107 58 179.5t159 72.5q85 0 129.5 -47.5t44.5 -125.5q0 -35 -15 -90h-294q2 -85 37 -138t105 -53q69 0 131 28zM136 320l217 -2v8q0 54 -22 85t-66 31q-34 0 -59.5 -13.5t-39 -35t-20.5 -38.5t-10 -35z" />
    <glyph glyph-name="igrave" unicode="&#xec;" horiz-adv-x="225" 
d="M158 511v-511h-91v502zM154 577l-172 104l48 73l160 -122z" />
    <glyph glyph-name="iacute" unicode="&#xed;" horiz-adv-x="225" 
d="M158 511v-511h-91v502zM259 681l-172 -104l-36 55l160 122z" />
    <glyph glyph-name="icircumflex" unicode="&#xee;" horiz-adv-x="225" 
d="M158 0v511l-91 -9v-502h91zM120 667l-85 -86l-48 36l99 110h65l100 -110l-51 -36z" />
    <glyph glyph-name="idieresis" unicode="&#xef;" horiz-adv-x="225" 
d="M158 511v-511h-91v502zM31 707q23 0 39 -15.5t16 -38.5t-16 -40t-39 -17q-22 0 -38.5 17t-16.5 40q0 22 16 38t39 16zM196 707q23 0 39 -15.5t16 -38.5t-16 -40t-39 -17q-22 0 -38.5 17t-16.5 40q0 22 16 38t39 16z" />
    <glyph glyph-name="eth" unicode="&#xf0;" horiz-adv-x="498" 
d="M46 223q0 116 46 184.5t134 68.5q75 0 118 -33q-27 97 -88 140l-76 -66l-49 56l55 47q-54 25 -126 33l14 67q107 -3 184 -39l71 60l46 -56l-53 -45q128 -108 128 -354q0 -299 -201 -299q-97 0 -150 68.5t-53 167.5zM135 221q0 -70 29.5 -114t82.5 -44q55 0 84 53t29 190
q0 29 -1 49q-59 48 -116 48q-108 0 -108 -182z" />
    <glyph glyph-name="ntilde" unicode="&#xf1;" horiz-adv-x="519" 
d="M130 593l-44 37q19 30 45 50.5t52 20.5q22 0 68.5 -21.5t66.5 -21.5q19 0 56 42l43 -36q-20 -34 -50 -55.5t-57 -21.5q-23 0 -67 21.5t-63 21.5t-50 -37zM454 347v-347h-90v342q0 46 -12 72t-47 26q-38 0 -80.5 -19.5t-66.5 -47.5v-373h-90v506h75l10 -61q28 27 75.5 49
t91.5 22q75 0 104.5 -44.5t29.5 -124.5z" />
    <glyph glyph-name="ograve" unicode="&#xf2;" horiz-adv-x="508" 
d="M252 -13q-94 0 -150 63t-56 201q0 137 58.5 201t152.5 64t149.5 -63t55.5 -201q0 -137 -58 -201t-152 -64zM255 442q-117 0 -117 -191q0 -190 116 -190q48 0 82 45t34 145q0 110 -29.5 150.5t-85.5 40.5zM326 577l-172 104l48 73l160 -122z" />
    <glyph glyph-name="oacute" unicode="&#xf3;" horiz-adv-x="508" 
d="M252 -13q-94 0 -150 63t-56 201q0 137 58.5 201t152.5 64t149.5 -63t55.5 -201q0 -137 -58 -201t-152 -64zM255 442q-117 0 -117 -191q0 -190 116 -190q48 0 82 45t34 145q0 110 -29.5 150.5t-85.5 40.5zM364 681l-172 -104l-36 55l160 122z" />
    <glyph glyph-name="ocircumflex" unicode="&#xf4;" horiz-adv-x="508" 
d="M252 -13q94 0 152 64t58 201q0 138 -55.5 201t-149.5 63t-152.5 -64t-58.5 -201q0 -138 56 -201t150 -63zM255 442q56 0 85.5 -40.5t29.5 -150.5q0 -100 -34 -145t-82 -45q-116 0 -116 190q0 191 117 191zM256 667l-85 -86l-48 36l99 110h65l100 -110l-51 -36z" />
    <glyph glyph-name="otilde" unicode="&#xf5;" horiz-adv-x="508" 
d="M252 -13q-94 0 -150 63t-56 201q0 137 58.5 201t152.5 64t149.5 -63t55.5 -201q0 -137 -58 -201t-152 -64zM255 442q-117 0 -117 -191q0 -190 116 -190q48 0 82 45t34 145q0 110 -29.5 150.5t-85.5 40.5zM133 593l-44 37q19 30 45 50.5t52 20.5q22 0 68.5 -21.5
t66.5 -21.5q19 0 56 42l43 -36q-20 -34 -50 -55.5t-57 -21.5q-23 0 -67 21.5t-63 21.5t-50 -37z" />
    <glyph glyph-name="odieresis" unicode="&#xf6;" horiz-adv-x="508" 
d="M252 -13q-94 0 -150 63t-56 201q0 137 58.5 201t152.5 64t149.5 -63t55.5 -201q0 -137 -58 -201t-152 -64zM255 442q-117 0 -117 -191q0 -190 116 -190q48 0 82 45t34 145q0 110 -29.5 150.5t-85.5 40.5zM171 707q23 0 39 -15.5t16 -38.5t-16 -40t-39 -17q-22 0 -38.5 17
t-16.5 40q0 22 16 38t39 16zM336 707q23 0 39 -15.5t16 -38.5t-16 -40t-39 -17q-22 0 -38.5 17t-16.5 40q0 22 16 38t39 16z" />
    <glyph glyph-name="divide" unicode="&#xf7;" horiz-adv-x="502" 
d="M252 206q23 0 39.5 -16t16.5 -39q0 -24 -16.5 -41.5t-39.5 -17.5q-25 0 -42 17.5t-17 41.5q0 23 17 39t42 16zM454 239h-406v79h406v-79zM252 469q23 0 39.5 -16t16.5 -39q0 -24 -16.5 -41.5t-39.5 -17.5q-25 0 -42 17.5t-17 41.5q0 23 17 39t42 16z" />
    <glyph glyph-name="oslash" unicode="&#xf8;" horiz-adv-x="513" 
d="M137 -86l-61 24l45 93q-75 65 -75 220q0 137 59 201t155 64q48 0 88 -17l36 74l60 -24l-42 -86q66 -66 66 -211q0 -137 -58.5 -201t-154.5 -64q-43 0 -77 12zM258 442q-50 0 -85 -42t-35 -149q0 -89 24 -135l153 314q-23 12 -57 12zM257 61q48 0 83.5 45t35.5 145
q0 78 -17 123l-147 -305q17 -8 45 -8z" />
    <glyph glyph-name="ugrave" unicode="&#xf9;" horiz-adv-x="515" 
d="M210 -13q-82 0 -114 44.5t-32 127.5v347h90v-345q0 -50 13 -73.5t57 -23.5q35 0 72.5 12.5t61.5 34.5v392h90v-512h-73l-10 54q-29 -24 -71 -41t-84 -17zM310 577l-172 104l48 73l160 -122z" />
    <glyph glyph-name="uacute" unicode="&#xfa;" horiz-adv-x="515" 
d="M210 -13q-82 0 -114 44.5t-32 127.5v347h90v-345q0 -50 13 -73.5t57 -23.5q35 0 72.5 12.5t61.5 34.5v392h90v-512h-73l-10 54q-29 -24 -71 -41t-84 -17zM379 681l-172 -104l-36 55l160 122z" />
    <glyph glyph-name="ucircumflex" unicode="&#xfb;" horiz-adv-x="515" 
d="M210 -13q42 0 84 17t71 41l10 -54h73v512h-90v-392q-24 -22 -61.5 -34.5t-72.5 -12.5q-44 0 -57 23.5t-13 73.5v345h-90v-347q0 -83 32 -127.5t114 -44.5zM258 667l-85 -86l-48 36l99 110h65l100 -110l-51 -36z" />
    <glyph glyph-name="udieresis" unicode="&#xfc;" horiz-adv-x="515" 
d="M210 -13q-82 0 -114 44.5t-32 127.5v347h90v-345q0 -50 13 -73.5t57 -23.5q35 0 72.5 12.5t61.5 34.5v392h90v-512h-73l-10 54q-29 -24 -71 -41t-84 -17zM179 707q23 0 39 -15.5t16 -38.5t-16 -40t-39 -17q-22 0 -38.5 17t-16.5 40q0 22 16 38t39 16zM344 707
q23 0 39 -15.5t16 -38.5t-16 -40t-39 -17q-22 0 -38.5 17t-16.5 40q0 22 16 38t39 16z" />
    <glyph glyph-name="yacute" unicode="&#xfd;" horiz-adv-x="473" 
d="M-6 -204l11 64q16 -3 44 -3q55 0 89.5 31t60.5 110l-185 502l95 6l131 -411l118 411h94l-166 -496q-39 -118 -90.5 -169.5t-133.5 -51.5q-33 0 -68 7zM393 681l-172 -104l-36 55l160 122z" />
    <glyph glyph-name="thorn" unicode="&#xfe;" horiz-adv-x="518" 
d="M158 700v-231q19 15 58.5 31t78.5 16q76 0 127 -62.5t51 -175.5q0 -291 -221 -291q-52 0 -94 14v-212h-90v911h90zM280 440q-62 0 -122 -42v-319q38 -16 95 -16q126 0 126 196q0 181 -99 181z" />
    <glyph glyph-name="ydieresis" unicode="&#xff;" horiz-adv-x="473" 
d="M-6 -204l11 64q16 -3 44 -3q55 0 89.5 31t60.5 110l-185 502l95 6l131 -411l118 411h94l-166 -496q-39 -118 -90.5 -169.5t-133.5 -51.5q-33 0 -68 7zM153 707q23 0 39 -15.5t16 -38.5t-16 -40t-39 -17q-22 0 -38.5 17t-16.5 40q0 22 16 38t39 16zM318 707q23 0 39 -15.5
t16 -38.5t-16 -40t-39 -17q-22 0 -38.5 17t-16.5 40q0 22 16 38t39 16z" />
    <glyph glyph-name="dotlessi" unicode="&#x131;" horiz-adv-x="225" 
d="M158 511v-511h-91v502z" />
    <glyph glyph-name="Lslash" unicode="&#x141;" horiz-adv-x="486" 
d="M214 81h250v-81h-346v315h-96v79h96v274h96v-274h193v-79h-193v-234z" />
    <glyph glyph-name="lslash" unicode="&#x142;" horiz-adv-x="427" 
d="M416 394v-79h-207v-213q0 -39 36 -39q28 0 59 10l15 -66q-41 -20 -101 -20q-100 0 -100 114v214h-87v79h87v306h91v-306h207z" />
    <glyph glyph-name="OE" unicode="&#x152;" horiz-adv-x="898" 
d="M566 81h275l9 -81h-380v56q-55 -69 -162 -69q-69 0 -120 29t-80 79t-43 109.5t-14 129.5q0 69 14.5 129t44 110t81 79t120.5 29q104 0 159 -67v54h371l-10 -81h-265v-202h259v-79h-259v-225zM310 72q83 0 122.5 73t39.5 189q0 117 -39.5 189.5t-122.5 72.5t-122.5 -72.5
t-39.5 -189.5q0 -116 39.5 -189t122.5 -73z" />
    <glyph glyph-name="oe" unicode="&#x153;" horiz-adv-x="813" 
d="M603 62q71 0 137 37l28 -63q-76 -49 -167 -49q-125 0 -180 97q-54 -97 -166 -97q-96 0 -152.5 63t-56.5 201q0 137 59 201t155 64q116 0 166 -93q56 93 165 93q85 0 130.5 -46.5t45.5 -124.5q0 -42 -14 -93h-294q2 -85 38 -137.5t106 -52.5zM258 442q-50 0 -85 -42
t-35 -149q0 -190 119 -190q48 0 83 45t35 145q0 110 -30 150.5t-87 40.5zM468 319h217v8q0 54 -22.5 84.5t-66.5 30.5q-34 0 -59 -13.5t-39 -35.5t-20 -39t-10 -35z" />
    <glyph glyph-name="Scaron" unicode="&#x160;" horiz-adv-x="490" 
d="M451 177q0 -84 -58 -137t-153 -53q-51 0 -108.5 11t-92.5 28l26 85q98 -39 168 -39q60 0 93 28.5t33 70.5q0 46 -36 77t-111 68q-40 20 -60 32t-46.5 35.5t-38 55t-11.5 73.5q0 77 57 123t141 46q81 0 168 -32l-26 -80q-76 27 -143 27q-50 0 -77.5 -23.5t-27.5 -64.5
q0 -35 32 -61.5t99 -61.5q37 -20 61.5 -36t53 -41.5t43 -58t14.5 -72.5zM263 781l91 93l46 -39l-103 -114h-66l-104 114l46 39z" />
    <glyph glyph-name="scaron" unicode="&#x161;" horiz-adv-x="411" 
d="M214 632l91 93l46 -39l-103 -114h-66l-104 114l46 39zM37 24l23 68q66 -29 128 -29q48 0 73.5 20.5t25.5 49.5q0 32 -24.5 53t-60 33.5t-70.5 26.5t-59.5 44.5t-24.5 76.5q0 68 48 108.5t128 40.5q84 0 134 -29l-21 -67q-58 20 -111 20q-45 0 -69 -18t-24 -48
q0 -31 25 -51t60.5 -32t70.5 -26.5t60 -44.5t25 -75q0 -66 -49 -112t-140 -46q-42 0 -84.5 11t-63.5 26z" />
    <glyph glyph-name="Ydieresis" unicode="&#x178;" horiz-adv-x="521" 
d="M3 668h108l150 -315l154 315h101l-207 -393v-275h-96v275zM192 839q23 0 39 -15.5t16 -38.5t-16 -40t-39 -17q-22 0 -38.5 17t-16.5 40q0 22 16 38t39 16zM357 839q23 0 39 -15.5t16 -38.5t-16 -40t-39 -17q-22 0 -38.5 17t-16.5 40q0 22 16 38t39 16z" />
    <glyph glyph-name="Zcaron" unicode="&#x17d;" horiz-adv-x="525" 
d="M156 81h333v-81h-441l-9 65l314 522h-299l-11 81h417l7 -69zM264 784l91 93l46 -39l-103 -114h-66l-104 114l46 39z" />
    <glyph glyph-name="zcaron" unicode="&#x17e;" horiz-adv-x="440" 
d="M137 74h261l10 -74h-368l-9 58l254 374h-226l-10 74h333l10 -62zM227 632l91 93l46 -39l-103 -114h-66l-104 114l46 39z" />
    <glyph glyph-name="florin" unicode="&#x192;" horiz-adv-x="513" 
d="M302 432v-490q0 -94 -39 -136.5t-129 -42.5q-53 0 -116 18l20 71q40 -10 85 -10q55 0 71.5 21.5t16.5 75.5v493h-93l9 74h84v37q0 94 39 136.5t129 42.5q53 0 116 -18l-20 -71q-40 10 -85 10q-55 0 -71.5 -21.5t-16.5 -75.5v-40h137l-10 -74h-127z" />
    <glyph glyph-name="circumflex" unicode="&#x2c6;" horiz-adv-x="384" 
d="M193 667l-85 -86l-48 36l99 110h65l100 -110l-51 -36z" />
    <glyph glyph-name="caron" unicode="&#x2c7;" horiz-adv-x="432" 
d="M223 632l91 93l46 -39l-103 -114h-66l-104 114l46 39z" />
    <glyph glyph-name="breve" unicode="&#x2d8;" horiz-adv-x="336" 
d="M119 670q0 -50 48 -50q50 0 50 50h59q0 -43 -28 -73.5t-81 -30.5q-54 0 -80.5 30t-26.5 74h59z" />
    <glyph glyph-name="dotaccent" unicode="&#x2d9;" horiz-adv-x="202" 
d="M101 682q25 0 43 -17.5t18 -42.5q0 -26 -18 -44.5t-43 -18.5t-43 18.5t-18 44.5q0 25 18 42.5t43 17.5z" />
    <glyph glyph-name="ring" unicode="&#x2da;" horiz-adv-x="335" 
d="M266 691q0 -43 -27 -73.5t-77 -30.5t-76 30t-26 73t26.5 72.5t76.5 29.5t76.5 -29t26.5 -72zM207 691q0 19 -10.5 33t-33.5 14q-22 0 -33 -14t-11 -34t10.5 -34.5t32.5 -14.5q23 0 34 15t11 35z" />
    <glyph glyph-name="ogonek" unicode="&#x2db;" horiz-adv-x="332" 
d="M123 -13h82q-53 -56 -53 -95q0 -35 42 -35q23 0 58 13l13 -70q-49 -21 -93 -21q-47 0 -77.5 23.5t-30.5 60.5q0 65 59 124z" />
    <glyph glyph-name="tilde" unicode="&#x2dc;" horiz-adv-x="515" 
d="M138 593l-44 37q19 30 45 50.5t52 20.5q22 0 68.5 -21.5t66.5 -21.5q19 0 56 42l43 -36q-20 -34 -50 -55.5t-57 -21.5q-23 0 -67 21.5t-63 21.5t-50 -37z" />
    <glyph glyph-name="hungarumlaut" unicode="&#x2dd;" horiz-adv-x="503" 
d="M258 666l-144 -140l-47 45l128 155zM437 662l-144 -140l-47 45l128 156z" />
    <glyph glyph-name="endash" unicode="&#x2013;" horiz-adv-x="556" 
d="M493 318v-79h-430v79h430z" />
    <glyph glyph-name="emdash" unicode="&#x2014;" horiz-adv-x="836" 
d="M773 318v-79h-710v79h710z" />
    <glyph glyph-name="quoteleft" unicode="&#x2018;" horiz-adv-x="223" 
d="M52 532q0 105 89 187h83q-82 -95 -82 -172q0 -33 17 -72h-95q-12 26 -12 57z" />
    <glyph glyph-name="quoteright" unicode="&#x2019;" horiz-adv-x="255" 
d="M215 643q0 -105 -89 -187h-83q82 95 82 172q0 33 -17 72h95q12 -26 12 -57z" />
    <glyph glyph-name="quotesinglbase" unicode="&#x201a;" horiz-adv-x="220" 
d="M163 59q0 -105 -89 -187h-83q82 95 82 172q0 33 -17 72h95q12 -26 12 -57z" />
    <glyph glyph-name="quotedblleft" unicode="&#x201c;" horiz-adv-x="393" 
d="M222 532q0 105 89 187h83q-82 -95 -82 -172q0 -33 17 -72h-95q-12 26 -12 57zM52 532q0 105 89 187h83q-82 -95 -82 -172q0 -33 17 -72h-95q-12 26 -12 57z" />
    <glyph glyph-name="quotedblright" unicode="&#x201d;" horiz-adv-x="425" 
d="M215 643q0 -105 -89 -187h-83q82 95 82 172q0 33 -17 72h95q12 -26 12 -57zM385 643q0 -105 -89 -187h-83q82 95 82 172q0 33 -17 72h95q12 -26 12 -57z" />
    <glyph glyph-name="quotedblbase" unicode="&#x201e;" horiz-adv-x="390" 
d="M163 59q0 -105 -89 -187h-83q82 95 82 172q0 33 -17 72h95q12 -26 12 -57zM333 59q0 -105 -89 -187h-83q82 95 82 172q0 33 -17 72h95q12 -26 12 -57z" />
    <glyph glyph-name="dagger" unicode="&#x2020;" horiz-adv-x="428" 
d="M399 480v-88l-162 15l25 -407h-106l25 407l-152 -15v88l152 -15l-27 204h110l-27 -204z" />
    <glyph glyph-name="daggerdbl" unicode="&#x2021;" horiz-adv-x="435" 
d="M262 341l-21 -126l143 13v-78l-143 13l24 -163h-94l23 163l-143 -13v78l143 -13l-20 126l20 118l-143 -13v79l143 -14l-23 163h94l-24 -163l143 14v-79l-143 13z" />
    <glyph glyph-name="bullet" unicode="&#x2022;" horiz-adv-x="371" 
d="M69 323q0 50 33.5 83.5t82.5 33.5q50 0 83.5 -33.5t33.5 -83.5t-33.5 -83.5t-83.5 -33.5q-49 0 -82.5 33.5t-33.5 83.5z" />
    <glyph glyph-name="ellipsis" unicode="&#x2026;" horiz-adv-x="668" 
d="M112 117q25 0 43 -17.5t18 -42.5q0 -26 -18 -44.5t-43 -18.5t-43 18.5t-18 44.5q0 25 18 42.5t43 17.5zM334 117q25 0 43 -17.5t18 -42.5q0 -26 -18 -44.5t-43 -18.5t-43 18.5t-18 44.5q0 25 18 42.5t43 17.5zM556 117q25 0 43 -17.5t18 -42.5q0 -26 -18 -44.5t-43 -18.5
t-43 18.5t-18 44.5q0 25 18 42.5t43 17.5z" />
    <glyph glyph-name="perthousand" unicode="&#x2030;" horiz-adv-x="1066" 
d="M574 -4q-66 0 -99.5 46.5t-33.5 161.5q0 116 34.5 163.5t100.5 47.5t99 -46.5t33 -162.5q0 -115 -34.5 -162.5t-99.5 -47.5zM574 353q-35 0 -51 -31.5t-16 -115.5q0 -86 16 -116t51 -30q36 0 52.5 30.5t16.5 115.5q0 84 -16.5 115.5t-52.5 31.5zM898 -4q-66 0 -99.5 46.5
t-33.5 161.5q0 116 34.5 163.5t100.5 47.5t99 -46.5t33 -162.5q0 -115 -34.5 -162.5t-99.5 -47.5zM898 353q-35 0 -51 -31.5t-16 -115.5q0 -86 16 -116t51 -30q36 0 52.5 30.5t16.5 115.5q0 84 -16.5 115.5t-52.5 31.5zM166 296q-65 0 -98.5 46.5t-33.5 161.5
q0 116 34.5 163.5t99.5 47.5q66 0 99.5 -46.5t33.5 -162.5q0 -115 -34.5 -162.5t-100.5 -47.5zM166 653q-35 0 -51 -31.5t-16 -115.5q0 -86 16 -116t51 -30q36 0 52.5 30.5t16.5 115.5q0 84 -16.5 115.5t-52.5 31.5zM560 706l-317 -748l-75 26l319 748z" />
    <glyph glyph-name="guilsinglleft" unicode="&#x2039;" horiz-adv-x="325" 
d="M276 431l-149 -154l149 -153l-58 -51l-171 180v48l171 180z" />
    <glyph glyph-name="guilsinglright" unicode="&#x203a;" horiz-adv-x="321" 
d="M194 308l-148 154l58 50l171 -180v-48l-171 -180l-58 51z" />
    <glyph glyph-name="fraction" unicode="&#x2044;" horiz-adv-x="402" 
d="M397 684l-317 -748l-75 26l319 748z" />
    <glyph glyph-name="Euro" unicode="&#x20ac;" horiz-adv-x="585" 
d="M412 446v-64h-196q-1 -14 -1 -43q0 -30 1 -43h196v-64h-187q35 -163 201 -163q52 0 110 12l13 -75q-79 -19 -142 -19q-241 0 -281 245h-86v64h80q-1 12 -1 39q0 32 1 47h-80v64h88q40 235 267 235q68 0 151 -23l-18 -75q-67 15 -118 15q-150 0 -185 -152h187z" />
    <glyph glyph-name="trademark" unicode="&#x2122;" horiz-adv-x="752" 
d="M144 616h-96v48h246v-48h-97v-323h-53v323zM511 389l-100 275h-62l-18 -371h49l9 264v46l102 -269h41l101 269v-46l9 -264h50l-18 371h-62z" />
    <glyph glyph-name="minus" unicode="&#x2212;" horiz-adv-x="504" 
d="M441 310v-61h-378v61h378z" />
    <glyph glyph-name="fi" unicode="&#xfb01;" horiz-adv-x="567" 
d="M409 435h-204v-621l-91 9v612l-93 5l9 59l84 7v37q0 179 186 179q71 0 139 -16l-18 -74q-71 11 -120 11q-47 0 -71.5 -22t-24.5 -75v-40h204l91 7v-513h-91v435z" />
    <glyph glyph-name="fl" unicode="&#xfb02;" horiz-adv-x="618" 
d="M114 -177v612l-93 5l9 59l84 7v37q0 179 186 179q101 0 212 -40v-580q0 -39 36 -39q28 0 59 10l15 -66q-41 -20 -101 -20q-100 0 -100 114v526q-65 16 -120 16q-47 0 -71.5 -22t-24.5 -75v-40h137l-10 -71h-127v-621z" />
    <glyph glyph-name="CR" horiz-adv-x="435" 
 />
    <glyph glyph-name="plus.001" horiz-adv-x="484" 
d="M281 85h-79v154h-152v79h152v152h79v-152h153v-79h-153v-154z" />
    <glyph glyph-name="percent" horiz-adv-x="812" 
d="M255 0h-92l362 701h91zM193 307q-61 0 -96 40.5t-35 149.5q0 110 36.5 152t97.5 42t96.5 -41.5t35.5 -151.5q0 -109 -36.5 -150t-98.5 -41zM194 626q-58 0 -58 -127q0 -71 15 -99t43 -28q29 0 44.5 28t15.5 99q0 127 -60 127zM583 -13q-61 0 -96 40.5t-35 149.5
q0 110 36.5 152t97.5 42t96.5 -41.5t35.5 -151.5q0 -109 -36.5 -150t-98.5 -41zM584 306q-58 0 -58 -127q0 -71 15 -99t43 -28q29 0 44.5 28t15.5 99q0 127 -60 127z" />
    <glyph glyph-name="_0007" 
 />
    <glyph glyph-name="_0009" 
 />
    <glyph glyph-name="_0157" 
 />
    <glyph glyph-name="_0158" 
 />
    <glyph glyph-name="_0141" 
 />
    <glyph glyph-name="_0142" 
 />
    <glyph glyph-name="_0144" 
 />
    <glyph glyph-name="_0143" 
 />
    <glyph glyph-name="_0127" 
 />
    <glyph glyph-name="_0129" 
 />
    </font>
</defs>
</svg>
